<svg width="14" height="14" viewBox="0 0 14 14" fill="none" xmlns="http://www.w3.org/2000/svg">
<g id="Group 136">
<path id="Vector" d="M0.0471068 1.25907C0.0837416 0.655943 0.476188 0.188826 1.07534 0.110629C1.53787 0.0502603 2.20634 0 3.15002 0C4.0937 0 4.76216 0.0502603 5.22469 0.110629C5.82386 0.188826 6.21628 0.655943 6.25293 1.25907C6.27914 1.69043 6.30004 2.3007 6.30004 3.15002C6.30004 3.99933 6.27914 4.6096 6.25293 5.04098C6.21628 5.6441 5.82386 6.11121 5.22469 6.1894C4.76216 6.24978 4.0937 6.30004 3.15002 6.30004C2.20634 6.30004 1.53787 6.24978 1.07534 6.1894C0.476188 6.11121 0.0837416 5.6441 0.0471068 5.04098C0.0209057 4.6096 0 3.99933 0 3.15002C0 2.3007 0.0209057 1.69043 0.0471068 1.25907Z" fill="#171717"/>
<path id="Vector_2" d="M0.0470458 12.741C0.0836805 13.3441 0.476127 13.8112 1.07528 13.8894C1.53781 13.9498 2.20628 14 3.14996 14C4.09363 14 4.7621 13.9498 5.22463 13.8894C5.8238 13.8112 6.21622 13.3441 6.25287 12.741C6.27908 12.3096 6.29998 11.6993 6.29998 10.85C6.29998 10.0007 6.27908 9.39042 6.25287 8.95904C6.21622 8.35592 5.8238 7.88881 5.22463 7.81062C4.7621 7.75024 4.09363 7.69998 3.14996 7.69998C2.20628 7.69998 1.53781 7.75024 1.07528 7.81062C0.476127 7.88881 0.0836805 8.35592 0.0470458 8.95904C0.0208446 9.39042 -6.10352e-05 10.0007 -6.10352e-05 10.85C-6.10352e-05 11.6993 0.0208446 12.3096 0.0470458 12.741Z" fill="#171717"/>
<path id="Vector_3" d="M12.7416 0.0471068C13.3447 0.0837416 13.8118 0.476188 13.89 1.07534C13.9504 1.53787 14.0007 2.20634 14.0007 3.15002C14.0007 4.0937 13.9504 4.76216 13.89 5.22469C13.8118 5.82386 13.3447 6.21628 12.7416 6.25293C12.3102 6.27914 11.7 6.30004 10.8506 6.30004C10.0013 6.30004 9.39106 6.27914 8.95969 6.25293C8.35656 6.21628 7.88945 5.82386 7.81126 5.22469C7.75088 4.76216 7.70062 4.0937 7.70062 3.15002C7.70062 2.20634 7.75088 1.53787 7.81126 1.07534C7.88945 0.476185 8.35656 0.0837416 8.95969 0.0471068C9.39106 0.0209057 10.0013 0 10.8506 0C11.7 0 12.3102 0.0209057 12.7416 0.0471068Z" fill="#171717"/>
<path id="Vector_4" d="M12.7416 13.9529C13.3447 13.9163 13.8118 13.5238 13.89 12.9247C13.9504 12.4621 14.0007 11.7937 14.0007 10.85C14.0007 9.90633 13.9504 9.23786 13.89 8.77533C13.8118 8.17616 13.3447 7.78374 12.7416 7.74709C12.3102 7.72088 11.7 7.69998 10.8506 7.69998C10.0013 7.69998 9.39106 7.72088 8.95969 7.74709C8.35656 7.78374 7.88945 8.17616 7.81126 8.77533C7.75088 9.23786 7.70062 9.90633 7.70062 10.85C7.70062 11.7937 7.75088 12.4621 7.81126 12.9247C7.88945 13.5238 8.35656 13.9163 8.95969 13.9529C9.39106 13.9791 10.0013 14 10.8506 14C11.7 14 12.3102 13.9791 12.7416 13.9529Z" fill="#171717"/>
</g>
</svg>
